# xmcd
#
# Track frame offsets:
#	150
#	17077
#	43098
#	67803
#	91309
#	107888
#	126248
#	163989
#	184400
#	201330
#	229383
#	248978
#	271706
#	291886
#
# Disc length: 4202 seconds
#
# Revision: 1
# Processed by: cddbd v1.5.1PL0 Copyright (c) Steve Scherf et al.
# Submitted via: audiograbber 1.83.01
#
DISCID=d110680e
DTITLE=Hillsong Music Ukraine - Небеса на земле
DYEAR=2000
DGENRE=Christian Rock
TTITLE0=Всей хвалы достоин ты
TTITLE1=Аллилуйя
TTITLE2=Как будто лечу я
TTITLE3=Наполняй, Дух Святой
TTITLE4=Бог мой и Царь
TTITLE5=Осанна
TTITLE6=Святый, Святый!
TTITLE7=Псалом 42:5
TTITLE8=Ты прославишься, мой Бог!
TTITLE9=Иисус, Иисус!
TTITLE10=Небеса на земле
TTITLE11=Ты всегда со мной
TTITLE12=Верю я в Иисуса
TTITLE13=Будем так мы побеждать
EXTD=
EXTT0=
EXTT1=
EXTT2=
EXTT3=
EXTT4=
EXTT5=
EXTT6=
EXTT7=
EXTT8=
EXTT9=
EXTT10=
EXTT11=
EXTT12=
EXTT13=
PLAYORDER=
